<svg width="1170" height="322" viewBox="0 0 1170 322" fill="none" xmlns="http://www.w3.org/2000/svg">
<rect width="1170" height="322" fill="white"/>
<path d="M362 60.9997C348.868 60.9997 335.864 63.5863 323.732 68.6118C311.599 73.6372 300.575 81.0032 291.289 90.289C282.003 99.5749 274.637 110.599 269.612 122.731C264.587 134.864 262 147.868 262 161C262 174.132 264.587 187.136 269.612 199.268C274.638 211.401 282.004 222.425 291.289 231.71C300.575 240.996 311.599 248.362 323.732 253.388" stroke="#FF6D2D" stroke-width="7"/>
<path d="M362 261C375.132 261 388.136 258.414 400.268 253.388C412.401 248.363 423.425 240.997 432.711 231.711C441.997 222.425 449.363 211.401 454.388 199.269C459.413 187.136 462 174.132 462 161C462 147.868 459.413 134.864 454.388 122.732C449.362 110.599 441.996 99.5754 432.711 90.2896C423.425 81.0037 412.401 73.6378 400.268 68.6123" stroke="#FF6D2D" stroke-width="7"/>
<path d="M462 167.5H612" stroke="#FF6D2D" stroke-width="7" stroke-linecap="round"/>
<path d="M458 132H558" stroke="#FF6D2D" stroke-opacity="0.7" stroke-width="7" stroke-linecap="round"/>
<path d="M453 203H553" stroke="#FF6D2D" stroke-opacity="0.7" stroke-width="7" stroke-linecap="round"/>
<path d="M171 203H271" stroke="#FF6D2D" stroke-opacity="0.7" stroke-width="7" stroke-linecap="round"/>
<path d="M165 132H265" stroke="#FF6D2D" stroke-opacity="0.7" stroke-width="7" stroke-linecap="round"/>
<path d="M112 167.5H262" stroke="#FF6D2D" stroke-width="7" stroke-linecap="round"/>
<path d="M348.4 195.5H306.064V126.092H348.4V134.732H315.472V156.428H345.136V164.78H315.472V186.764H348.4V195.5ZM384.977 195.5H362.033V126.092H384.593C405.329 126.092 419.345 140.108 419.345 160.844C419.345 181.484 405.521 195.5 384.977 195.5ZM383.921 134.732H371.441V186.764H384.305C399.761 186.764 409.553 176.78 409.553 160.844C409.553 144.716 399.761 134.732 383.921 134.732Z" fill="#0A2346"/>
<path d="M697.536 196H656.352V127.264H697.44V133.6H663.264V158.368H694.272V164.608H663.264V189.664H697.536V196ZM721.171 197.152C707.635 197.152 699.667 186.784 699.667 172.864C699.667 158.848 707.635 148.288 721.459 148.288C729.139 148.288 735.283 151.648 738.547 158.368V126.016H745.171V196H739.411L738.739 186.496C735.475 193.696 728.947 197.152 721.171 197.152ZM722.323 191.104C732.499 191.104 738.451 183.424 738.451 172.672C738.451 162.016 732.499 154.24 722.323 154.24C712.243 154.24 706.387 162.016 706.387 172.672C706.387 183.424 712.243 191.104 722.323 191.104ZM784.433 149.536H791.057V196H785.297L784.433 188.128C781.841 193.504 775.409 197.152 768.113 197.152C757.169 197.152 751.217 189.664 751.217 178.336V149.44H757.937V176.224C757.937 187.264 762.833 191.2 770.225 191.2C779.153 191.2 784.433 185.248 784.433 174.208V149.536ZM818.521 196V127.264H843.673C856.921 127.264 865.081 133.984 865.081 145.024C865.081 153.088 861.529 158.56 854.425 161.344C862.393 163.936 866.425 169.504 866.425 177.952C866.425 188.992 858.169 196 845.113 196H818.521ZM843.577 133.408H825.433V158.56H844.441C853.081 158.56 857.977 153.76 857.977 145.6C857.977 137.92 852.793 133.408 843.577 133.408ZM845.113 164.608H825.433V189.76H845.113C854.137 189.76 859.417 185.056 859.417 177.088C859.417 169.312 854.041 164.608 845.113 164.608ZM876.88 195.904H870.256V126.016H876.88V157.6C879.856 152.032 885.52 148.288 893.296 148.288C905.488 148.288 910.96 155.872 910.96 167.584V196H904.336V169.024C904.336 158.176 899.248 154.336 892.048 154.336C882.064 154.336 876.88 161.728 876.88 170.656V195.904ZM930.306 197.152C920.418 197.152 914.562 191.584 914.562 183.424C914.562 174.88 921.09 169.504 931.938 168.64L947.298 167.392V165.856C947.298 156.736 941.826 153.856 935.01 153.856C926.946 153.856 922.146 157.504 922.146 163.744H916.098C916.098 154.336 923.778 148.288 935.202 148.288C945.954 148.288 953.826 153.664 953.826 165.952V196H948.258L947.394 187.84C944.514 193.696 938.178 197.152 930.306 197.152ZM931.842 191.776C941.634 191.776 947.298 184.96 947.298 174.88V172.384L933.57 173.44C924.834 174.208 921.282 178.048 921.282 183.232C921.282 188.896 925.506 191.776 931.842 191.776ZM984.206 148.96V154.912H980.558C972.014 154.912 966.542 160.672 966.542 169.504V196H959.918V149.536H966.158L966.638 156.736C968.462 151.744 973.358 148.48 979.886 148.48C981.326 148.48 982.574 148.576 984.206 148.96ZM997.281 197.152C987.393 197.152 981.537 191.584 981.537 183.424C981.537 174.88 988.065 169.504 998.913 168.64L1014.27 167.392V165.856C1014.27 156.736 1008.8 153.856 1001.98 153.856C993.921 153.856 989.121 157.504 989.121 163.744H983.073C983.073 154.336 990.753 148.288 1002.18 148.288C1012.93 148.288 1020.8 153.664 1020.8 165.952V196H1015.23L1014.37 187.84C1011.49 193.696 1005.15 197.152 997.281 197.152ZM998.817 191.776C1008.61 191.776 1014.27 184.96 1014.27 174.88V172.384L1000.54 173.44C991.809 174.208 988.257 178.048 988.257 183.232C988.257 188.896 992.481 191.776 998.817 191.776ZM1036.71 196H1030.18V155.104H1020.87V149.536H1030.18V134.848H1036.71V149.536H1046.02V155.104H1036.71V196Z" fill="#FF6D2D"/>
</svg>
